<svg width="1249" height="927" viewBox="0 0 1249 927" fill="none" xmlns="http://www.w3.org/2000/svg">
<path d="M1095.16 258.485C1186.32 379.964 1186.32 547.036 1095.16 668.515V668.515C1077.86 691.576 1057.71 712.354 1035.18 730.352L987.012 768.844C878.865 855.264 739.729 892.978 602.743 873.005L501.023 858.174C470.193 853.679 439.85 846.312 410.392 836.17L324.433 806.575C198.091 763.076 105.881 653.658 84.4215 521.772V521.772C78.1417 483.178 78.1417 443.822 84.4215 405.228V405.228C105.881 273.342 198.091 163.924 324.433 120.425L410.392 90.83C439.851 80.6876 470.193 73.3207 501.023 68.8257L602.743 53.9946C739.729 34.0218 878.865 71.7363 987.012 158.156L1035.18 196.648C1057.71 214.646 1077.86 235.424 1095.16 258.485V258.485Z" fill="#F27A24" fill-opacity="0.79"/>
<g filter="url(#filter0_f)">
<circle cx="1040" cy="526" r="13" fill="#D83131"/>
</g>
<path fill-rule="evenodd" clip-rule="evenodd" d="M405.167 240.029C405.167 226.238 389.706 219.595 381.605 230.496C356.757 264.189 343.309 305.304 343.309 347.581C343.309 389.856 356.757 430.97 381.605 464.664C389.706 475.756 405.167 469.112 405.167 455.194V417.855C405.141 415.379 404.581 412.937 403.528 410.705C394.428 391.045 389.706 369.544 389.706 347.772C389.706 325.997 394.428 304.499 403.528 284.836C404.608 282.548 405.168 280.037 405.167 277.495V240.029Z" fill="white"/>
<path d="M438.376 576.456H429.064V597H417.064V545.736H429.064V566.472H438.664L453.832 545.736H466.696L448.072 570.408L467.944 597H453.832L438.376 576.456ZM497.568 597.672C492.384 597.672 487.712 596.552 483.552 594.312C479.392 592.072 476.128 588.968 473.76 585C471.456 580.968 470.304 576.424 470.304 571.368C470.304 566.312 471.456 561.8 473.76 557.832C476.128 553.864 479.392 550.76 483.552 548.52C487.712 546.28 492.384 545.16 497.568 545.16C502.816 545.16 507.52 546.28 511.68 548.52C515.84 550.76 519.072 553.864 521.376 557.832C523.744 561.8 524.928 566.312 524.928 571.368C524.928 576.424 523.744 580.968 521.376 585C519.072 588.968 515.84 592.072 511.68 594.312C507.52 596.552 502.816 597.672 497.568 597.672ZM497.568 587.4C501.984 587.4 505.632 585.928 508.512 582.984C511.392 580.04 512.832 576.168 512.832 571.368C512.832 566.568 511.392 562.696 508.512 559.752C505.632 556.808 501.984 555.336 497.568 555.336C493.152 555.336 489.504 556.808 486.624 559.752C483.808 562.696 482.4 566.568 482.4 571.368C482.4 576.168 483.808 580.04 486.624 582.984C489.504 585.928 493.152 587.4 497.568 587.4ZM565.199 545.16C570.191 545.16 574.639 546.248 578.543 548.424C582.511 550.6 585.615 553.672 587.855 557.64C590.095 561.608 591.215 566.184 591.215 571.368C591.215 576.552 590.095 581.16 587.855 585.192C585.615 589.16 582.511 592.232 578.543 594.408C574.639 596.584 570.191 597.672 565.199 597.672C558.287 597.672 552.815 595.368 548.783 590.76V615.624H536.783V545.736H548.207V552.456C550.191 550.024 552.623 548.2 555.503 546.984C558.447 545.768 561.679 545.16 565.199 545.16ZM563.855 587.4C568.271 587.4 571.887 585.928 574.703 582.984C577.583 580.04 579.023 576.168 579.023 571.368C579.023 566.568 577.583 562.696 574.703 559.752C571.887 556.808 568.271 555.336 563.855 555.336C560.975 555.336 558.383 556.008 556.079 557.352C553.775 558.632 551.951 560.488 550.607 562.92C549.263 565.352 548.591 568.168 548.591 571.368C548.591 574.568 549.263 577.384 550.607 579.816C551.951 582.248 553.775 584.136 556.079 585.48C558.383 586.76 560.975 587.4 563.855 587.4ZM633.032 570.312C636.232 571.208 638.696 572.68 640.424 574.728C642.216 576.712 643.112 579.112 643.112 581.928C643.112 585.064 642.056 587.848 639.944 590.28C637.832 592.648 634.92 594.504 631.208 595.848C627.496 597.192 623.272 597.864 618.536 597.864C614.568 597.864 610.696 597.416 606.92 596.52C603.144 595.56 599.72 594.216 596.648 592.488L600.104 583.56C602.6 584.968 605.416 586.056 608.552 586.824C611.688 587.592 614.824 587.976 617.96 587.976C621.992 587.976 625.128 587.368 627.368 586.152C629.672 584.872 630.824 583.144 630.824 580.968C630.824 578.984 629.928 577.448 628.136 576.36C626.408 575.272 623.944 574.728 620.744 574.728H610.76V566.664H619.784C622.792 566.664 625.128 566.152 626.792 565.128C628.52 564.104 629.384 562.664 629.384 560.808C629.384 558.952 628.36 557.48 626.312 556.392C624.264 555.304 621.448 554.76 617.864 554.76C612.744 554.76 607.336 556.008 601.64 558.504L598.568 549.672C605.288 546.536 612.072 544.968 618.92 544.968C623.272 544.968 627.176 545.576 630.632 546.792C634.088 547.944 636.776 549.608 638.696 551.784C640.68 553.896 641.672 556.328 641.672 559.08C641.672 561.576 640.904 563.816 639.368 565.8C637.832 567.72 635.72 569.224 633.032 570.312ZM655.564 545.736H667.564V579.528L695.884 545.736H706.828V597H694.828V563.208L666.604 597H655.564V545.736ZM722.97 545.736H734.97V566.568H760.794V545.736H772.794V597H760.794V576.744H734.97V597H722.97V545.736ZM807.981 545.16C815.533 545.16 821.293 546.984 825.261 550.632C829.293 554.216 831.309 559.656 831.309 566.952V597H819.981V590.76C818.509 593 816.397 594.728 813.645 595.944C810.957 597.096 807.693 597.672 803.853 597.672C800.013 597.672 796.653 597.032 793.773 595.752C790.893 594.408 788.653 592.584 787.053 590.28C785.517 587.912 784.749 585.256 784.749 582.312C784.749 577.704 786.445 574.024 789.837 571.272C793.293 568.456 798.701 567.048 806.061 567.048H819.309V566.28C819.309 562.696 818.221 559.944 816.045 558.024C813.933 556.104 810.765 555.144 806.541 555.144C803.661 555.144 800.813 555.592 797.997 556.488C795.245 557.384 792.909 558.632 790.989 560.232L786.285 551.496C788.973 549.448 792.205 547.88 795.981 546.792C799.757 545.704 803.757 545.16 807.981 545.16ZM806.349 588.936C809.357 588.936 812.013 588.264 814.317 586.92C816.685 585.512 818.349 583.528 819.309 580.968V575.016H806.925C800.013 575.016 796.557 577.288 796.557 581.832C796.557 584.008 797.421 585.736 799.149 587.016C800.877 588.296 803.277 588.936 806.349 588.936ZM685.925 646.824V681H677.989V653.608H661.157V681H653.157V646.824H685.925ZM728.976 646.824L712.976 683.752C711.482 687.464 709.669 690.067 707.536 691.56C705.402 693.096 702.821 693.864 699.792 693.864C698.085 693.864 696.4 693.587 694.736 693.032C693.072 692.477 691.706 691.709 690.64 690.728L693.84 684.84C694.608 685.565 695.504 686.141 696.528 686.568C697.594 686.995 698.661 687.208 699.728 687.208C701.136 687.208 702.288 686.845 703.184 686.12C704.122 685.395 704.976 684.179 705.744 682.472L706.32 681.128L691.408 646.824H699.728L710.48 672.104L721.296 646.824H728.976ZM749.147 681.448C745.605 681.448 742.427 680.701 739.611 679.208C736.795 677.715 734.597 675.645 733.019 673C731.44 670.312 730.651 667.283 730.651 663.912C730.651 660.541 731.44 657.533 733.019 654.888C734.597 652.243 736.773 650.173 739.547 648.68C742.363 647.187 745.563 646.44 749.147 646.44C752.517 646.44 755.461 647.123 757.979 648.488C760.539 649.853 762.459 651.816 763.739 654.376L757.595 657.96C756.613 656.381 755.376 655.208 753.883 654.44C752.432 653.629 750.832 653.224 749.083 653.224C746.096 653.224 743.621 654.205 741.659 656.168C739.696 658.088 738.715 660.669 738.715 663.912C738.715 667.155 739.675 669.757 741.595 671.72C743.557 673.64 746.053 674.6 749.083 674.6C750.832 674.6 752.432 674.216 753.883 673.448C755.376 672.637 756.613 671.443 757.595 669.864L763.739 673.448C762.416 676.008 760.475 677.992 757.915 679.4C755.397 680.765 752.475 681.448 749.147 681.448ZM797.542 653.608H785.574V681H777.574V653.608H765.542V646.824H797.542V653.608ZM816.081 646.44C821.115 646.44 824.955 647.656 827.601 650.088C830.289 652.477 831.633 656.104 831.633 660.968V681H824.081V676.84C823.099 678.333 821.691 679.485 819.857 680.296C818.065 681.064 815.889 681.448 813.329 681.448C810.769 681.448 808.529 681.021 806.609 680.168C804.689 679.272 803.195 678.056 802.129 676.52C801.105 674.941 800.593 673.171 800.593 671.208C800.593 668.136 801.723 665.683 803.985 663.848C806.289 661.971 809.894 661.032 814.801 661.032H823.633V660.52C823.633 658.131 822.907 656.296 821.457 655.016C820.049 653.736 817.937 653.096 815.121 653.096C813.201 653.096 811.302 653.395 809.425 653.992C807.59 654.589 806.033 655.421 804.753 656.488L801.617 650.664C803.409 649.299 805.563 648.253 808.081 647.528C810.598 646.803 813.265 646.44 816.081 646.44ZM814.993 675.624C816.998 675.624 818.769 675.176 820.305 674.28C821.883 673.341 822.993 672.019 823.633 670.312V666.344H815.377C810.769 666.344 808.465 667.859 808.465 670.888C808.465 672.339 809.041 673.491 810.193 674.344C811.345 675.197 812.945 675.624 814.993 675.624Z" fill="white"/>
<path fill-rule="evenodd" clip-rule="evenodd" d="M467.038 244.678C467.038 231.173 452.102 224.374 443.815 234.858C418.827 266.55 405.191 306.102 405.191 346.891C405.191 387.68 418.827 427.232 443.815 458.924C452.102 469.408 467.038 462.609 467.038 449.104V413.353C467.013 410.686 466.377 408.063 465.181 405.697C456.24 387.46 451.582 367.327 451.582 346.908C451.582 326.489 456.24 306.354 465.181 288.12C466.372 285.761 467.008 283.147 467.038 280.493V244.678Z" fill="white"/>
<path fill-rule="evenodd" clip-rule="evenodd" d="M528.854 249.114C528.854 235.959 514.473 228.998 506.032 238.913C480.885 268.454 467.023 306.373 467.023 345.624C467.023 384.874 480.885 422.791 506.032 452.332C514.473 462.247 528.854 455.256 528.854 442.133V408.193C528.822 405.337 528.112 402.533 526.781 400.027C517.989 383.315 513.387 364.619 513.387 345.624C513.387 326.626 517.989 307.929 526.781 291.22C528.107 288.721 528.819 285.93 528.854 283.084V249.114Z" fill="white"/>
<path fill-rule="evenodd" clip-rule="evenodd" d="M844.281 240.029C844.281 226.238 859.741 219.595 867.842 230.496C892.69 264.189 906.138 305.304 906.138 347.581C906.138 389.856 892.69 430.97 867.842 464.664C859.711 475.66 844.281 469.019 844.281 455.131V417.855C844.293 415.347 844.854 412.871 845.918 410.612C855.018 390.949 859.741 369.449 859.741 347.676C859.741 325.902 855.018 304.403 845.918 284.74C844.854 282.482 844.293 280.006 844.281 277.495V240.029Z" fill="white"/>
<path fill-rule="evenodd" clip-rule="evenodd" d="M782.434 244.678C782.434 231.173 797.401 224.374 805.657 234.858C830.644 266.55 844.278 306.102 844.278 346.891C844.278 387.68 830.644 427.232 805.657 458.924C797.401 469.408 782.434 462.609 782.434 449.104V413.353C782.458 410.686 783.094 408.063 784.288 405.697C793.232 387.46 797.888 367.327 797.888 346.908C797.888 326.489 793.232 306.354 784.288 288.12C783.099 285.761 782.463 283.147 782.434 280.493V244.678Z" fill="white"/>
<path fill-rule="evenodd" clip-rule="evenodd" d="M720.586 249.114C720.586 235.959 734.964 228.998 743.405 238.913C768.554 268.454 782.416 306.373 782.416 345.624C782.416 384.874 768.554 422.791 743.405 452.332C734.964 462.246 720.586 455.288 720.586 442.133V408.193C720.613 405.332 721.335 402.526 722.69 400.027C731.457 383.308 736.048 364.614 736.048 345.624C736.048 326.631 731.457 307.937 722.69 291.22C721.34 288.731 720.615 285.934 720.586 283.084V249.114Z" fill="white"/>
<path fill-rule="evenodd" clip-rule="evenodd" d="M624.73 244.184C571.76 244.184 528.871 289.532 528.871 345.46C528.871 401.388 571.789 446.733 624.73 446.733C677.668 446.733 720.589 401.388 720.589 345.46C720.589 289.532 677.668 244.184 624.73 244.184ZM625.131 398.941C596.963 398.941 576.12 375.268 574.885 347.334C573.646 319.403 598.847 295.695 625.131 295.695C653.27 295.695 674.113 319.371 675.348 347.334C676.587 375.299 651.386 398.941 625.131 398.941Z" fill="white"/>
<g filter="url(#filter1_f)">
<circle cx="194.5" cy="428.5" r="23.5" fill="#91EC95"/>
</g>
<g filter="url(#filter2_f)">
<circle cx="271.5" cy="257.5" r="23.5" fill="white"/>
</g>
<path d="M211.5 539L215.204 550.401H227.192L217.494 557.448L221.198 568.849L211.5 561.802L201.802 568.849L205.506 557.448L195.808 550.401H207.796L211.5 539Z" fill="white"/>
<path d="M922.5 694L926.204 705.401H938.192L928.494 712.448L932.198 723.849L922.5 716.802L912.802 723.849L916.506 712.448L906.808 705.401H918.796L922.5 694Z" fill="white"/>
<path d="M1031.5 195L1035.2 206.401H1047.19L1037.49 213.448L1041.2 224.849L1031.5 217.802L1021.8 224.849L1025.51 213.448L1015.81 206.401H1027.8L1031.5 195Z" fill="white"/>
<path d="M993 388L1007.59 401.92L1025.34 411.493L1016.61 429.67L1012.98 449.507L993 446.82L973.015 449.507L969.395 429.67L960.664 411.493L978.411 401.92L993 388Z" fill="#D14B4B"/>
<path d="M578 98L584.651 105.188L594.418 105.907L592.946 115.589L598.473 123.673L589.985 128.558L587.112 137.92L578 134.33L568.888 137.92L566.015 128.558L557.527 123.673L563.054 115.589L561.582 105.907L571.349 105.188L578 98Z" fill="white"/>
<path d="M241.026 140.668L298.396 153.961L258.199 196.998L241.026 140.668Z" fill="#4555E3"/>
<rect x="939" y="785" width="38" height="38" transform="rotate(30 939 785)" fill="#BA3BF7"/>
<rect x="272" y="694" width="38" height="38" transform="rotate(30 272 694)" fill="#4AECEC"/>
<path d="M843.5 123L847.106 161.894L886 165.5L847.106 169.106L843.5 208L839.894 169.106L801 165.5L839.894 161.894L843.5 123Z" fill="#BAF242"/>
<path d="M453.541 709.587C453.976 707.454 457.024 707.454 457.459 709.587L462.448 733.993C462.608 734.778 463.222 735.392 464.007 735.552L488.413 740.541C490.546 740.976 490.546 744.024 488.413 744.459L464.007 749.448C463.222 749.608 462.608 750.222 462.448 751.007L457.459 775.413C457.024 777.546 453.976 777.546 453.541 775.413L448.552 751.007C448.392 750.222 447.778 749.608 446.993 749.448L422.587 744.459C420.454 744.024 420.454 740.976 422.587 740.541L446.993 735.552C447.778 735.392 448.392 734.778 448.552 733.993L453.541 709.587Z" fill="#FCF667"/>
<defs>
<filter id="filter0_f" x="1022" y="508" width="36" height="36" filterUnits="userSpaceOnUse" color-interpolation-filters="sRGB">
<feFlood flood-opacity="0" result="BackgroundImageFix"/>
<feBlend mode="normal" in="SourceGraphic" in2="BackgroundImageFix" result="shape"/>
<feGaussianBlur stdDeviation="2.5" result="effect1_foregroundBlur"/>
</filter>
<filter id="filter1_f" x="151" y="385" width="87" height="87" filterUnits="userSpaceOnUse" color-interpolation-filters="sRGB">
<feFlood flood-opacity="0" result="BackgroundImageFix"/>
<feBlend mode="normal" in="SourceGraphic" in2="BackgroundImageFix" result="shape"/>
<feGaussianBlur stdDeviation="10" result="effect1_foregroundBlur"/>
</filter>
<filter id="filter2_f" x="228" y="214" width="87" height="87" filterUnits="userSpaceOnUse" color-interpolation-filters="sRGB">
<feFlood flood-opacity="0" result="BackgroundImageFix"/>
<feBlend mode="normal" in="SourceGraphic" in2="BackgroundImageFix" result="shape"/>
<feGaussianBlur stdDeviation="10" result="effect1_foregroundBlur"/>
</filter>
</defs>
</svg>
