<svg width="551" height="551" viewBox="0 0 551 551" fill="none" xmlns="http://www.w3.org/2000/svg">
<g clip-path="url(#clip0)">
<path d="M515.828 0.201172H34.972C15.659 0.201172 0 15.8592 0 35.1722V393.63C0 412.942 15.659 428.6 34.972 428.6H515.828C535.142 428.6 550.801 412.942 550.801 393.629V35.1722C550.801 15.8592 535.143 0.201172 515.828 0.201172ZM515.828 35.1722V289.51L446.908 226.85C436.549 217.434 420.619 217.81 410.722 227.716L340.97 297.457L203.438 133.179C193.042 120.764 174 120.642 163.448 132.908L34.972 282.219V35.1722H515.828ZM367.201 126.972C367.201 100.411 388.724 78.8862 415.285 78.8862C441.847 78.8862 463.371 100.411 463.371 126.972C463.371 153.533 441.848 175.057 415.285 175.057C388.725 175.058 367.201 153.533 367.201 126.972Z" fill="#F27A24"/>
<rect y="36" width="35" height="361" fill="#C4C4C4"/>
<rect x="515" y="397" width="32" height="480" transform="rotate(90 515 397)" fill="#C4C4C4"/>
<path d="M515 0L515 36L35 36L35 -2.09815e-05L515 0Z" fill="#C4C4C4"/>
<rect x="551" y="397" width="36" height="361" transform="rotate(-180 551 397)" fill="#C4C4C4"/>
<rect x="515" y="35" width="1" height="1" fill="#F27A24"/>
<path d="M40.25 538H34.2188V516.969H11.2812V538H5.28125V492.5H11.2812V512.062H34.2188V492.5H40.25V538ZM64.0312 538.625C59.4479 538.625 55.7188 537.125 52.8438 534.125C49.9688 531.104 48.5312 527.073 48.5312 522.031V520.969C48.5312 517.615 49.1667 514.625 50.4375 512C51.7292 509.354 53.5208 507.292 55.8125 505.812C58.125 504.312 60.625 503.562 63.3125 503.562C67.7083 503.562 71.125 505.01 73.5625 507.906C76 510.802 77.2188 514.948 77.2188 520.344V522.75H54.3125C54.3958 526.083 55.3646 528.781 57.2188 530.844C59.0938 532.885 61.4688 533.906 64.3438 533.906C66.3854 533.906 68.1146 533.49 69.5312 532.656C70.9479 531.823 72.1875 530.719 73.25 529.344L76.7812 532.094C73.9479 536.448 69.6979 538.625 64.0312 538.625ZM63.3125 508.312C60.9792 508.312 59.0208 509.167 57.4375 510.875C55.8542 512.562 54.875 514.938 54.5 518H71.4375V517.562C71.2708 514.625 70.4792 512.354 69.0625 510.75C67.6458 509.125 65.7292 508.312 63.3125 508.312ZM108.688 508.875H97.3438V538H91.5625V508.875H80.4375V504.188H108.688V508.875ZM152.062 504.188H157.844V538H152.062V513.344L136.469 538H130.688V504.188H136.469V528.875L152.062 504.188ZM185.719 513.438C185.719 511.854 185.115 510.604 183.906 509.688C182.698 508.75 181.042 508.281 178.938 508.281C176.896 508.281 175.188 508.812 173.812 509.875C172.458 510.938 171.781 512.188 171.781 513.625H166.031C166.031 510.688 167.26 508.281 169.719 506.406C172.177 504.531 175.25 503.594 178.938 503.594C182.896 503.594 185.979 504.448 188.188 506.156C190.396 507.844 191.5 510.26 191.5 513.406C191.5 514.927 191.042 516.323 190.125 517.594C189.208 518.865 187.906 519.875 186.219 520.625C190.156 521.958 192.125 524.583 192.125 528.5C192.125 531.604 190.927 534.062 188.531 535.875C186.135 537.688 182.938 538.594 178.938 538.594C175.042 538.594 171.823 537.646 169.281 535.75C166.76 533.833 165.5 531.25 165.5 528H171.25C171.25 529.646 171.979 531.062 173.438 532.25C174.917 533.417 176.75 534 178.938 534C181.146 534 182.927 533.49 184.281 532.469C185.635 531.448 186.312 530.125 186.312 528.5C186.312 526.604 185.74 525.25 184.594 524.438C183.469 523.604 181.708 523.188 179.312 523.188H173.531V518.312H179.812C183.75 518.208 185.719 516.583 185.719 513.438ZM198.094 520.781C198.094 517.469 198.74 514.49 200.031 511.844C201.344 509.198 203.156 507.156 205.469 505.719C207.802 504.281 210.458 503.562 213.438 503.562C218.042 503.562 221.76 505.156 224.594 508.344C227.448 511.531 228.875 515.771 228.875 521.062V521.469C228.875 524.76 228.24 527.719 226.969 530.344C225.719 532.948 223.917 534.979 221.562 536.438C219.229 537.896 216.542 538.625 213.5 538.625C208.917 538.625 205.198 537.031 202.344 533.844C199.51 530.656 198.094 526.438 198.094 521.188V520.781ZM203.906 521.469C203.906 525.219 204.771 528.229 206.5 530.5C208.25 532.771 210.583 533.906 213.5 533.906C216.438 533.906 218.771 532.76 220.5 530.469C222.229 528.156 223.094 524.927 223.094 520.781C223.094 517.073 222.208 514.073 220.438 511.781C218.688 509.469 216.354 508.312 213.438 508.312C210.583 508.312 208.281 509.448 206.531 511.719C204.781 513.99 203.906 517.24 203.906 521.469ZM250.969 506.125C255.219 506.125 258.615 507.552 261.156 510.406C263.719 513.24 265 516.979 265 521.625V522.156C265 525.344 264.385 528.198 263.156 530.719C261.927 533.219 260.156 535.167 257.844 536.562C255.552 537.938 252.906 538.625 249.906 538.625C245.365 538.625 241.708 537.115 238.938 534.094C236.167 531.052 234.781 526.979 234.781 521.875V519.062C234.781 511.958 236.094 506.312 238.719 502.125C241.365 497.938 245.26 495.385 250.406 494.469C253.323 493.948 255.292 493.312 256.312 492.562C257.333 491.812 257.844 490.781 257.844 489.469H262.594C262.594 492.073 262 494.104 260.812 495.562C259.646 497.021 257.771 498.052 255.188 498.656L250.875 499.625C247.438 500.438 244.854 501.812 243.125 503.75C241.417 505.667 240.302 508.229 239.781 511.438C242.844 507.896 246.573 506.125 250.969 506.125ZM249.844 510.875C247.01 510.875 244.76 511.833 243.094 513.75C241.427 515.646 240.594 518.281 240.594 521.656V522.156C240.594 525.781 241.427 528.656 243.094 530.781C244.781 532.885 247.052 533.938 249.906 533.938C252.781 533.938 255.052 532.875 256.719 530.75C258.385 528.625 259.219 525.521 259.219 521.438C259.219 518.25 258.375 515.698 256.688 513.781C255.021 511.844 252.74 510.875 249.844 510.875ZM299.5 521.469C299.5 526.615 298.323 530.76 295.969 533.906C293.615 537.052 290.427 538.625 286.406 538.625C282.302 538.625 279.073 537.323 276.719 534.719V551H270.938V504.188H276.219L276.5 507.938C278.854 505.021 282.125 503.562 286.312 503.562C290.375 503.562 293.583 505.094 295.938 508.156C298.312 511.219 299.5 515.479 299.5 520.938V521.469ZM293.719 520.812C293.719 517 292.906 513.99 291.281 511.781C289.656 509.573 287.427 508.469 284.594 508.469C281.094 508.469 278.469 510.021 276.719 513.125V529.281C278.448 532.365 281.094 533.906 284.656 533.906C287.427 533.906 289.625 532.812 291.25 530.625C292.896 528.417 293.719 525.146 293.719 520.812ZM327.75 538C327.417 537.333 327.146 536.146 326.938 534.438C324.25 537.229 321.042 538.625 317.312 538.625C313.979 538.625 311.24 537.688 309.094 535.812C306.969 533.917 305.906 531.521 305.906 528.625C305.906 525.104 307.24 522.375 309.906 520.438C312.594 518.479 316.365 517.5 321.219 517.5H326.844V514.844C326.844 512.823 326.24 511.219 325.031 510.031C323.823 508.823 322.042 508.219 319.688 508.219C317.625 508.219 315.896 508.74 314.5 509.781C313.104 510.823 312.406 512.083 312.406 513.562H306.594C306.594 511.875 307.188 510.25 308.375 508.688C309.583 507.104 311.208 505.854 313.25 504.938C315.312 504.021 317.573 503.562 320.031 503.562C323.927 503.562 326.979 504.542 329.188 506.5C331.396 508.438 332.542 511.115 332.625 514.531V530.094C332.625 533.198 333.021 535.667 333.812 537.5V538H327.75ZM318.156 533.594C319.969 533.594 321.688 533.125 323.312 532.188C324.938 531.25 326.115 530.031 326.844 528.531V521.594H322.312C315.229 521.594 311.688 523.667 311.688 527.812C311.688 529.625 312.292 531.042 313.5 532.062C314.708 533.083 316.26 533.594 318.156 533.594ZM368.656 523.312H364.594V538H358.812V523.312H354.75L345.281 538H337.969L350.062 520.5L339.125 504.188H346.125L354.844 518.188H358.812V504.188H364.594V518.188H368.531L377.312 504.188H384.312L373.344 520.531L385.438 538H378.125L368.656 523.312ZM404.094 538.625C399.51 538.625 395.781 537.125 392.906 534.125C390.031 531.104 388.594 527.073 388.594 522.031V520.969C388.594 517.615 389.229 514.625 390.5 512C391.792 509.354 393.583 507.292 395.875 505.812C398.188 504.312 400.688 503.562 403.375 503.562C407.771 503.562 411.188 505.01 413.625 507.906C416.062 510.802 417.281 514.948 417.281 520.344V522.75H394.375C394.458 526.083 395.427 528.781 397.281 530.844C399.156 532.885 401.531 533.906 404.406 533.906C406.448 533.906 408.177 533.49 409.594 532.656C411.01 531.823 412.25 530.719 413.312 529.344L416.844 532.094C414.01 536.448 409.76 538.625 404.094 538.625ZM403.375 508.312C401.042 508.312 399.083 509.167 397.5 510.875C395.917 512.562 394.938 514.938 394.562 518H411.5V517.562C411.333 514.625 410.542 512.354 409.125 510.75C407.708 509.125 405.792 508.312 403.375 508.312ZM451.625 538H445.844V523.562H430.312V538H424.5V504.188H430.312V518.844H445.844V504.188H451.625V538ZM482.812 504.188H488.594V538H482.812V513.344L467.219 538H461.438V504.188H467.219V528.875L482.812 504.188ZM523.719 504.188V538H517.906V524.844H509.188L501.219 538H494.969L503.469 523.969C501.302 523.177 499.635 521.958 498.469 520.312C497.323 518.646 496.75 516.708 496.75 514.5C496.75 511.417 497.906 508.938 500.219 507.062C502.531 505.167 505.625 504.208 509.5 504.188H523.719ZM502.562 514.562C502.562 516.208 503.125 517.542 504.25 518.562C505.375 519.562 506.865 520.073 508.719 520.094H517.906V508.875H509.594C507.448 508.875 505.74 509.406 504.469 510.469C503.198 511.51 502.562 512.875 502.562 514.562Z" fill="black"/>
</g>
<defs>
<clipPath id="clip0">
</clipPath>
</defs>
</svg>
